<svg width="15" height="16" viewBox="0 0 15 16" fill="none" xmlns="http://www.w3.org/2000/svg">
<path d="M5.01714 12.1083C5.01714 12.1692 4.94758 12.218 4.85988 12.218C4.76008 12.2271 4.69052 12.1784 4.69052 12.1083C4.69052 12.0473 4.76008 11.9986 4.84778 11.9986C4.93851 11.9894 5.01714 12.0382 5.01714 12.1083ZM4.07661 11.9712C4.05544 12.0321 4.11593 12.1022 4.20665 12.1205C4.28528 12.1509 4.37601 12.1205 4.39415 12.0595C4.4123 11.9986 4.35484 11.9285 4.26411 11.9011C4.18548 11.8798 4.09778 11.9102 4.07661 11.9712ZM5.41331 11.9194C5.3256 11.9407 5.26512 11.9986 5.27419 12.0687C5.28327 12.1296 5.3619 12.1692 5.45262 12.1479C5.54032 12.1266 5.60081 12.0687 5.59173 12.0077C5.58266 11.9498 5.50101 11.9102 5.41331 11.9194ZM7.40323 0.243744C3.20867 0.243744 0 3.4521 0 7.67812C0 11.0571 2.11089 13.9486 5.12601 14.9662C5.5131 15.0363 5.64919 14.7956 5.64919 14.5976C5.64919 14.4087 5.64012 13.3666 5.64012 12.7268C5.64012 12.7268 3.52319 13.1838 3.07863 11.8188C3.07863 11.8188 2.73387 10.9322 2.2379 10.7037C2.2379 10.7037 1.54536 10.2253 2.28629 10.2344C2.28629 10.2344 3.03931 10.2954 3.45363 11.0205C4.11593 12.1966 5.22581 11.8584 5.65827 11.6573C5.72782 11.1698 5.9244 10.8316 6.14214 10.6305C4.45161 10.4416 2.74597 10.1948 2.74597 7.26374C2.74597 6.42585 2.97581 6.00538 3.45968 5.46913C3.38105 5.27109 3.12399 4.45453 3.53831 3.40031C4.17036 3.20226 5.625 4.22296 5.625 4.22296C6.22984 4.05234 6.88004 3.96398 7.52419 3.96398C8.16835 3.96398 8.81855 4.05234 9.42339 4.22296C9.42339 4.22296 10.878 3.19921 11.5101 3.40031C11.9244 4.45757 11.6673 5.27109 11.5887 5.46913C12.0726 6.00843 12.369 6.4289 12.369 7.26374C12.369 10.204 10.5877 10.4386 8.89718 10.6305C9.1754 10.8712 9.41129 11.3283 9.41129 12.0443C9.41129 13.0711 9.40222 14.3416 9.40222 14.5915C9.40222 14.7895 9.54133 15.0302 9.9254 14.9602C12.9496 13.9486 15 11.0571 15 7.67812C15 3.4521 11.5978 0.243744 7.40323 0.243744ZM2.93952 10.7524C2.9002 10.7829 2.90927 10.853 2.96069 10.9109C3.00907 10.9596 3.07863 10.9809 3.11794 10.9413C3.15726 10.9109 3.14819 10.8408 3.09677 10.7829C3.04839 10.7341 2.97883 10.7128 2.93952 10.7524ZM2.6129 10.5056C2.59173 10.5452 2.62198 10.594 2.68246 10.6244C2.73085 10.6549 2.79133 10.6458 2.8125 10.6031C2.83367 10.5635 2.80343 10.5148 2.74294 10.4843C2.68246 10.466 2.63407 10.4752 2.6129 10.5056ZM3.59274 11.5903C3.54435 11.6299 3.5625 11.7213 3.63206 11.7792C3.70161 11.8493 3.78931 11.8584 3.82863 11.8097C3.86794 11.7701 3.8498 11.6787 3.78931 11.6208C3.72278 11.5507 3.63206 11.5416 3.59274 11.5903ZM3.24798 11.1424C3.1996 11.1729 3.1996 11.2521 3.24798 11.3222C3.29637 11.3923 3.37802 11.4227 3.41734 11.3923C3.46573 11.3527 3.46573 11.2734 3.41734 11.2034C3.375 11.1333 3.29637 11.1028 3.24798 11.1424Z" fill="black"/>
</svg>
